<svg width="103" height="23" viewBox="0 0 103 23" fill="none" xmlns="http://www.w3.org/2000/svg">
<path d="M9.452 22.286C7.75333 22.286 6.24533 21.974 4.928 21.35C3.61067 20.7087 2.57933 19.7727 1.834 18.542C1.106 17.3113 0.742 15.8033 0.742 14.018C0.742 11.99 1.14067 10.1787 1.938 8.584C2.75267 6.972 3.94 5.70667 5.5 4.788C7.06 3.852 8.94933 3.384 11.168 3.384C12.5547 3.384 13.794 3.57467 14.886 3.956C15.978 4.33733 16.8273 4.814 17.434 5.386L15.874 8.558C14.4353 7.44867 12.7973 6.894 10.96 6.894C9.66 6.894 8.55933 7.206 7.658 7.83C6.774 8.454 6.098 9.29467 5.63 10.352C5.162 11.392 4.928 12.5533 4.928 13.836C4.928 15.552 5.37867 16.8173 6.28 17.632C7.18133 18.4467 8.438 18.854 10.05 18.854C10.518 18.854 10.986 18.8193 11.454 18.75C11.922 18.6807 12.39 18.5767 12.858 18.438L13.456 14.798H9.504L9.946 11.886H17.226L15.796 21.038C14.8947 21.454 13.8807 21.766 12.754 21.974C11.6273 22.182 10.5267 22.286 9.452 22.286ZM25.7329 22.286C24.3982 22.286 23.2369 22.0433 22.2489 21.558C21.2609 21.0553 20.4982 20.3707 19.9609 19.504C19.4235 18.62 19.1549 17.5887 19.1549 16.41C19.1549 14.954 19.4582 13.6713 20.0649 12.562C20.6889 11.4353 21.5382 10.56 22.6129 9.936C23.7049 9.29467 24.9442 8.974 26.3309 8.974C27.7522 8.974 28.8875 9.286 29.7369 9.91C30.5862 10.5167 31.1755 11.34 31.5049 12.38C31.8342 13.4027 31.9209 14.538 31.7649 15.786L31.6609 16.462H22.7949C22.8122 17.3807 23.1069 18.0913 23.6789 18.594C24.2509 19.0967 25.0655 19.348 26.1229 19.348C26.8509 19.348 27.5529 19.244 28.2289 19.036C28.9222 18.828 29.5375 18.5247 30.0749 18.126L30.9329 20.7C30.3089 21.1853 29.5375 21.5753 28.6189 21.87C27.7002 22.1473 26.7382 22.286 25.7329 22.286ZM26.3049 11.574C25.3689 11.574 24.6409 11.86 24.1209 12.432C23.6009 12.9867 23.2542 13.654 23.0809 14.434H28.7489C28.8009 13.6193 28.6275 12.9433 28.2289 12.406C27.8475 11.8513 27.2062 11.574 26.3049 11.574ZM39.6904 22.286C37.7144 22.286 36.1717 21.7573 35.0624 20.7C33.9704 19.6253 33.4244 18.1953 33.4244 16.41C33.4244 14.8327 33.7624 13.4893 34.4384 12.38C35.1144 11.2707 36.0071 10.43 37.1164 9.858C38.2431 9.26867 39.4477 8.974 40.7304 8.974C42.7064 8.974 44.2491 9.51133 45.3584 10.586C46.4677 11.6433 47.0224 13.056 47.0224 14.824C47.0224 16.4187 46.6757 17.7707 45.9824 18.88C45.3064 19.9893 44.4137 20.8387 43.3044 21.428C42.1951 22 40.9904 22.286 39.6904 22.286ZM39.7944 19.348C40.8171 19.348 41.6144 18.906 42.1864 18.022C42.7757 17.138 43.0704 16.0287 43.0704 14.694C43.0704 13.7927 42.8537 13.108 42.4204 12.64C41.9871 12.1547 41.3977 11.912 40.6524 11.912C39.6124 11.912 38.8064 12.354 38.2344 13.238C37.6624 14.122 37.3764 15.2227 37.3764 16.54C37.3764 17.4413 37.5844 18.1347 38.0004 18.62C38.4337 19.1053 39.0317 19.348 39.7944 19.348Z" fill="white"/>
<path d="M49.797 22V0.849999H55.317V22H49.797ZM59.1427 22V0.849999H69.3127C71.7127 0.849999 73.5627 1.47 74.8627 2.71C76.1827 3.93 76.8427 5.62 76.8427 7.78C76.8427 9.94 76.1827 11.64 74.8627 12.88C73.5627 14.1 71.7127 14.71 69.3127 14.71H64.6627V22H59.1427ZM64.6627 10.48H68.3527C70.5127 10.48 71.5927 9.58 71.5927 7.78C71.5927 5.98 70.5127 5.08 68.3527 5.08H64.6627V10.48ZM79.4761 22V0.849999H84.0661L90.8161 12.97L97.5661 0.849999H102.036V22H97.0561V10.51L92.2261 18.88H89.2261L84.4561 10.63V22H79.4761Z" fill="#B8D9A0"/>
</svg>
