<svg width="112" height="38" viewBox="0 0 112 38" fill="none" xmlns="http://www.w3.org/2000/svg">
<path d="M10.452 30.286C8.75333 30.286 7.24533 29.974 5.928 29.35C4.61067 28.7087 3.57933 27.7727 2.834 26.542C2.106 25.3113 1.742 23.8033 1.742 22.018C1.742 19.99 2.14067 18.1787 2.938 16.584C3.75267 14.972 4.94 13.7067 6.5 12.788C8.06 11.852 9.94933 11.384 12.168 11.384C13.5547 11.384 14.794 11.5747 15.886 11.956C16.978 12.3373 17.8273 12.814 18.434 13.386L16.874 16.558C15.4353 15.4487 13.7973 14.894 11.96 14.894C10.66 14.894 9.55933 15.206 8.658 15.83C7.774 16.454 7.098 17.2947 6.63 18.352C6.162 19.392 5.928 20.5533 5.928 21.836C5.928 23.552 6.37867 24.8173 7.28 25.632C8.18133 26.4467 9.438 26.854 11.05 26.854C11.518 26.854 11.986 26.8193 12.454 26.75C12.922 26.6807 13.39 26.5767 13.858 26.438L14.456 22.798H10.504L10.946 19.886H18.226L16.796 29.038C15.8947 29.454 14.8807 29.766 13.754 29.974C12.6273 30.182 11.5267 30.286 10.452 30.286ZM26.7329 30.286C25.3982 30.286 24.2369 30.0433 23.2489 29.558C22.2609 29.0553 21.4982 28.3707 20.9609 27.504C20.4235 26.62 20.1549 25.5887 20.1549 24.41C20.1549 22.954 20.4582 21.6713 21.0649 20.562C21.6889 19.4353 22.5382 18.56 23.6129 17.936C24.7049 17.2947 25.9442 16.974 27.3309 16.974C28.7522 16.974 29.8875 17.286 30.7369 17.91C31.5862 18.5167 32.1755 19.34 32.5049 20.38C32.8342 21.4027 32.9209 22.538 32.7649 23.786L32.6609 24.462H23.7949C23.8122 25.3807 24.1069 26.0913 24.6789 26.594C25.2509 27.0967 26.0655 27.348 27.1229 27.348C27.8509 27.348 28.5529 27.244 29.2289 27.036C29.9222 26.828 30.5375 26.5247 31.0749 26.126L31.9329 28.7C31.3089 29.1853 30.5375 29.5753 29.6189 29.87C28.7002 30.1473 27.7382 30.286 26.7329 30.286ZM27.3049 19.574C26.3689 19.574 25.6409 19.86 25.1209 20.432C24.6009 20.9867 24.2542 21.654 24.0809 22.434H29.7489C29.8009 21.6193 29.6275 20.9433 29.2289 20.406C28.8475 19.8513 28.2062 19.574 27.3049 19.574ZM40.6904 30.286C38.7144 30.286 37.1717 29.7573 36.0624 28.7C34.9704 27.6253 34.4244 26.1953 34.4244 24.41C34.4244 22.8327 34.7624 21.4893 35.4384 20.38C36.1144 19.2707 37.0071 18.43 38.1164 17.858C39.2431 17.2687 40.4477 16.974 41.7304 16.974C43.7064 16.974 45.2491 17.5113 46.3584 18.586C47.4677 19.6433 48.0224 21.056 48.0224 22.824C48.0224 24.4187 47.6757 25.7707 46.9824 26.88C46.3064 27.9893 45.4137 28.8387 44.3044 29.428C43.1951 30 41.9904 30.286 40.6904 30.286ZM40.7944 27.348C41.8171 27.348 42.6144 26.906 43.1864 26.022C43.7757 25.138 44.0704 24.0287 44.0704 22.694C44.0704 21.7927 43.8537 21.108 43.4204 20.64C42.9871 20.1547 42.3977 19.912 41.6524 19.912C40.6124 19.912 39.8064 20.354 39.2344 21.238C38.6624 22.122 38.3764 23.2227 38.3764 24.54C38.3764 25.4413 38.5844 26.1347 39.0004 26.62C39.4337 27.1053 40.0317 27.348 40.7944 27.348Z" fill="#2A2E2E"/>
<path d="M50.797 30V8.85H56.317V30H50.797ZM60.1427 30V8.85H70.3127C72.7127 8.85 74.5627 9.47 75.8627 10.71C77.1827 11.93 77.8427 13.62 77.8427 15.78C77.8427 17.94 77.1827 19.64 75.8627 20.88C74.5627 22.1 72.7127 22.71 70.3127 22.71H65.6627V30H60.1427ZM65.6627 18.48H69.3527C71.5127 18.48 72.5927 17.58 72.5927 15.78C72.5927 13.98 71.5127 13.08 69.3527 13.08H65.6627V18.48ZM80.4761 30V8.85H85.0661L91.8161 20.97L98.5661 8.85H103.036V30H98.0561V18.51L93.2261 26.88H90.2261L85.4561 18.63V30H80.4761Z" fill="#B8D9A0"/>
</svg>
