<svg width="20" height="20" viewBox="0 0 20 20" fill="none" xmlns="http://www.w3.org/2000/svg">
<g clip-path="url(#clip0_702_1682)">
<path fill-rule="evenodd" clip-rule="evenodd" d="M11.5 0C9.576 0 8 1.572 8 3.4902C8 3.7702 8.034 4.0422 8.0972 4.3036L6.8332 4.89059L0.7106 2.0466C0.646035 2.01657 0.575801 2.00069 0.5046 2C0.438553 1.99939 0.37304 2.01187 0.311845 2.03673C0.250651 2.06158 0.194987 2.09832 0.148069 2.14481C0.101152 2.1913 0.06391 2.24662 0.0384954 2.30759C0.0130809 2.36855 -2.79484e-06 2.43395 4.47807e-10 2.5L4.47807e-10 16.558C1.59902e-05 16.6533 0.0272649 16.7466 0.0785371 16.8269C0.129809 16.9072 0.202969 16.9712 0.2894 17.0114L6.6226 19.9534C6.68998 19.9847 6.7635 20.0006 6.8378 20C6.90912 19.9994 6.9795 19.9836 7.0442 19.9536L13.1668 17.1094L19.2894 19.9534C19.3656 19.9888 19.4495 20.0044 19.5333 19.9988C19.6171 19.9932 19.6981 19.9666 19.7689 19.9214C19.8398 19.8762 19.898 19.8139 19.9384 19.7403C19.9788 19.6666 20 19.584 20 19.5V5.44199C20 5.3467 19.9727 5.25339 19.9215 5.17306C19.8702 5.09274 19.797 5.02873 19.7106 4.9886L14.9218 2.764C14.584 1.1908 13.1742 0 11.5 0ZM11.5 1.6356C12.536 1.6356 13.3598 2.4572 13.3598 3.4902C13.3598 4.5232 12.5358 5.34459 11.5 5.34459C10.464 5.34459 9.6402 4.5232 9.6402 3.4902C9.6402 2.4572 10.4642 1.6356 11.5 1.6356ZM1 3.2836L6.455 5.81759L6.5292 18.8076L1 16.2384V3.2836ZM14.9746 3.891L19 5.76099V18.7164L13.4644 16.145L13.4128 7.14139L14.6082 5.10739C14.6624 5.00939 14.705 4.9052 14.7422 4.7984C14.8605 4.50788 14.9387 4.20261 14.9746 3.891ZM8.4734 5.23159C8.5254 5.32079 8.5796 5.40819 8.639 5.49219L11.073 9.69919C11.4138 10.1446 11.6404 10.06 11.9238 9.67579L12.8188 8.15279L12.8644 16.1468L7.1292 18.8114L7.0554 5.89019L8.4734 5.23159Z" fill="#2A2E2E"/>
</g>
<defs>
<clipPath id="clip0_702_1682">
<rect width="20" height="20" fill="white"/>
</clipPath>
</defs>
</svg>
