<svg width="20" height="20" viewBox="0 0 20 20" fill="none" xmlns="http://www.w3.org/2000/svg">
<path d="M10 19.2857C15.1284 19.2857 19.2857 15.1284 19.2857 10C19.2857 4.87165 15.1284 0.714294 10 0.714294C4.87164 0.714294 0.714287 4.87165 0.714287 10C0.714287 15.1284 4.87164 19.2857 10 19.2857Z" stroke="#2A2E2E" stroke-width="1.42857" stroke-linecap="round" stroke-linejoin="round"/>
<path d="M1.42857 13.5714H3.92857C4.59161 13.5714 5.2275 13.308 5.69634 12.8392C6.16518 12.3703 6.42857 11.7345 6.42857 11.0714V8.92856C6.42857 8.26551 6.69197 7.62963 7.16081 7.16079C7.62965 6.69195 8.26553 6.42856 8.92857 6.42856C9.59162 6.42856 10.2275 6.16516 10.6963 5.69632C11.1652 5.22748 11.4286 4.5916 11.4286 3.92856V0.81427M19.2857 9.85713C18.5705 9.48599 17.7772 9.29014 16.9714 9.2857H13.9286C13.2655 9.2857 12.6296 9.54909 12.1608 10.0179C11.692 10.4868 11.4286 11.1227 11.4286 11.7857C11.4286 12.4487 11.692 13.0846 12.1608 13.5535C12.6296 14.0223 13.2655 14.2857 13.9286 14.2857C14.4022 14.2857 14.8564 14.4738 15.1913 14.8087C15.5262 15.1436 15.7143 15.5978 15.7143 16.0714V17.3143" stroke="#2A2E2E" stroke-width="1.42857" stroke-linecap="round" stroke-linejoin="round"/>
</svg>
